<?xml version="1.0" encoding="utf-8"?>
<!-- Generator: Adobe Illustrator 16.0.0, SVG Export Plug-In . SVG Version: 6.00 Build 0)  -->
<!DOCTYPE svg PUBLIC "-//W3C//DTD SVG 1.1//EN" "http://www.w3.org/Graphics/SVG/1.1/DTD/svg11.dtd">
<svg version="1.1" id="レイヤー_1" xmlns="http://www.w3.org/2000/svg" xmlns:xlink="http://www.w3.org/1999/xlink" x="0px"
	 y="0px" width="470px" height="160px" viewBox="0 0 470 160" enable-background="new 0 0 470 160" xml:space="preserve">
<g>
	<path fill="#FFFFFF" d="M26.604,131.564L15.289,156.33H2L49.364,53.312l47.36,103.018h-13.29l-11.309-24.766H26.604z M49.365,80.31
		l-17.629,39.984h35.257L49.365,80.31z"/>
	<path fill="#FFFFFF" d="M265.857,57.508h53.269v11.277h-40.905v28.76h37.524v11.268h-37.524v36.261h40.905v11.271h-53.269V57.508z"
		/>
	<path fill="#FFFFFF" d="M165.297,73.069c-5.048-3.246-12.739-6.569-22.076-6.569c-22.236,0-39.204,18.482-39.204,40.372
		c0,21.631,16.837,40.11,38.938,40.11c9.732,0,16.881-3.371,22.389-7.078l6.748,9.83c-9.769,6.445-20.056,8.521-28.75,8.521
		c-28.277,0-51.69-22.414-51.69-50.988c0-29.23,23.542-52.037,52.75-52.037c8.677,0,18.059,2.074,27.69,8.112L165.297,73.069z"/>
	<path fill="#FFFFFF" d="M245.861,73.069c-5.041-3.246-12.741-6.569-22.078-6.569c-22.232,0-39.205,18.48-39.205,40.371
		c0,21.631,16.837,40.109,38.943,40.109c9.742,0,16.883-3.369,22.394-7.076l6.743,9.83c-9.768,6.443-20.055,8.521-28.743,8.521
		c-28.285,0-51.698-22.414-51.698-50.987c0-29.231,23.544-52.038,52.75-52.038c8.689,0,18.059,2.074,27.69,8.112L245.861,73.069z"/>
	<path fill="#FFFFFF" d="M362.452,97.879l-7.113-2.753c-6.185-2.362-13.813-6.421-13.813-14.157c0-8.646,8.682-15.122,16.574-15.122
		c7.504,0,12.237,3.141,15.914,9.306l9.87-5.899c-5.399-9.573-14.47-14.943-25.518-14.943c-15.003,0-29.206,10.666-29.206,26.659
		c0,13.76,10.265,20.188,21.574,25.038l6.84,2.882c8.546,3.535,17.107,8.127,17.107,18.742c0,10.352-7.64,19.268-18.293,19.268
		c-9.127,0-16.803-5.772-18.73-14.271l-11.577,4.28c4.125,12.675,15.36,21.523,29.254,21.523c17.755,0,31.704-12.844,31.704-30.802
		C387.039,111.119,376.521,103.385,362.452,97.879"/>
	<path fill="#FFFFFF" d="M432.999,97.879l-7.106-2.753c-6.183-2.362-13.816-6.421-13.816-14.157c0-8.646,8.685-15.122,16.574-15.122
		c7.504,0,12.238,3.141,15.918,9.306l9.865-5.899c-5.391-9.573-14.465-14.943-25.517-14.943c-15.001,0-29.203,10.666-29.203,26.659
		c0,13.76,10.261,20.188,21.571,25.038l6.835,2.882c8.558,3.535,17.108,8.127,17.108,18.742c0,10.352-7.633,19.268-18.287,19.268
		c-9.07,0-16.707-5.7-18.697-14.101l-11.555,4.277c4.17,12.579,15.361,21.356,29.194,21.356c17.765,0,31.707-12.844,31.707-30.802
		C457.602,111.119,447.074,103.385,432.999,97.879"/>
	<path fill="#FFFFFF" d="M250.361,106.945c0,14.344-11.668,25.984-26.065,25.984c-14.406,0-26.077-11.639-26.077-25.984
		c0-14.35,11.671-25.984,26.077-25.984C238.693,80.961,250.361,92.598,250.361,106.945"/>
	<path fill="#FFFFFF" d="M272.323,34.044c0,9.246-7.526,16.733-16.8,16.733c-9.274,0-16.793-7.493-16.793-16.733
		c0-9.234,7.519-16.727,16.793-16.727C264.797,17.312,272.323,24.811,272.323,34.044"/>
	<path fill="#FFFFFF" d="M295.367,15.586c0,5.908-4.812,10.702-10.742,10.702c-5.936,0-10.75-4.794-10.75-10.702
		c0-5.912,4.814-10.706,10.75-10.706C290.562,4.884,295.367,9.675,295.367,15.586"/>
	<path fill="#FFFFFF" d="M317.082,9.534c0,4.396-3.581,7.96-7.989,7.96c-4.416,0-7.997-3.564-7.997-7.96
		c0-4.401,3.581-7.966,7.997-7.966C313.501,1.568,317.082,5.133,317.082,9.534"/>
	<path fill="#FFFFFF" d="M459.745,58.195h-2.185v5.617h-0.932v-5.617h-2.204v-0.929h5.323v0.929H459.745z M467.993,63.812h-0.935
		v-5.617h-0.024l-2.265,5.617h-0.602l-2.188-5.617h-0.032v5.617h-0.937v-6.546h1.584l1.887,4.714l1.949-4.714h1.567v6.546H467.993z"
		/>
</g>
</svg>
